<svg xmlns="http://www.w3.org/2000/svg" width="253" height="40" fill="none" xmlns:v="https://vecta.io/nano"><path d="M39.988 20.685c-.378 11.039-9.634 19.681-20.673 19.303S-.366 30.354.012 19.315 9.646-.366 20.685.012s19.681 9.634 19.303 20.673z" fill="#333"/><path d="M36.031 25.748c-.252 7.359-7.616 13.08-16.447 12.777S3.798 32.012 4.05 24.652s7.616-13.08 16.447-12.777 15.786 6.514 15.534 13.873z" fill="#e3e3e3"/><g fill="#333"><path d="M7.394 8.901l1.861-1.208 7.25 11.164 6.512-4.229 1.174 1.807-8.373 5.438L7.394 8.901z"/><use href="#B"/><path d="M18.593 25.677l7.765-5.042 1.174 1.807-5.904 3.834 2.556 3.936 5.153-3.346 1.162 1.789-5.153 3.346 3.532 5.439-1.861 1.208-8.424-12.971z"/><use href="#B" x="7.2" y="11.733"/><use href="#B" x="4.8" y="4.8"/><path d="M53.04 14.48h2.14v12.46h7.26V29h-9.4V14.48zm14.44 9.34a3.08 3.08 0 0 0 .46 1.66 3.45 3.45 0 0 0 1.22 1.18c.507.293 1.073.44 1.7.44.667 0 1.26-.147 1.78-.44a3.24 3.24 0 0 0 1.22-1.18 3.08 3.08 0 0 0 .46-1.66v-9.34h2.1v9.4c0 1.053-.247 1.98-.74 2.78-.493.787-1.16 1.4-2 1.84s-1.78.66-2.82.66c-1.013 0-1.94-.22-2.78-.66s-1.507-1.053-2-1.84c-.48-.8-.72-1.727-.72-2.78v-9.4h2.12v9.34z"/><use href="#C"/><path d="M97.103 29V14.48h4.04c1.44 0 2.666.22 3.68.66s1.826 1.02 2.439 1.74c.627.72 1.08 1.52 1.36 2.4.294.88.44 1.767.44 2.66 0 1.08-.193 2.053-.58 2.92s-.913 1.613-1.579 2.24a7.17 7.17 0 0 1-2.3 1.42c-.867.32-1.787.48-2.761.48h-4.739zm2.14-2.06h2.199a6.56 6.56 0 0 0 2.161-.34c.666-.227 1.239-.56 1.72-1 .493-.44.873-.98 1.14-1.62s.4-1.373.4-2.2c0-.893-.154-1.667-.46-2.32-.294-.667-.687-1.213-1.18-1.64a4.63 4.63 0 0 0-1.661-.96 5.45 5.45 0 0 0-1.839-.32h-2.48v10.4z"/><use href="#D"/><path d="M130.247 14.48h8.7v2.06h-6.56v4.36h5.74v2.04h-5.74V29h-2.14V14.48zM139.255 29l6.38-15.1h.12l6.38 15.1h-2.44l-4.64-11.76 1.54-1.02-5.24 12.78h-2.1zm3.88-5.44h5.16l.74 1.84h-6.54l.64-1.84zm-.54-11.5c0-.32.114-.587.34-.8.227-.227.487-.34.78-.34.267 0 .52.113.76.34.24.213.36.48.36.8 0 .333-.12.607-.36.82s-.493.32-.76.32c-.28 0-.54-.107-.78-.32-.226-.213-.34-.487-.34-.82zm3.78 0c0-.32.12-.587.36-.8.24-.227.5-.34.78-.34.267 0 .514.113.74.34.24.213.36.48.36.8 0 .333-.12.607-.36.82-.226.213-.473.32-.74.32-.28 0-.54-.107-.78-.32s-.36-.487-.36-.82zm12.344 2.42c.76 0 1.46.107 2.1.32.654.2 1.207.493 1.66.88a3.87 3.87 0 0 1 1.08 1.44c.267.56.4 1.213.4 1.96a5.7 5.7 0 0 1-.26 1.7 4.25 4.25 0 0 1-.84 1.52c-.387.453-.893.82-1.52 1.1-.626.267-1.406.4-2.34.4h-2.12V29h-2.14V14.48h3.98zm.24 7.28c.547 0 1-.087 1.36-.26.374-.173.66-.387.86-.64a2.31 2.31 0 0 0 .44-.84 3 3 0 0 0 .14-.88 2.75 2.75 0 0 0-.14-.84 2.31 2.31 0 0 0-.44-.84 2.26 2.26 0 0 0-.82-.66c-.347-.173-.773-.26-1.28-.26h-2.2v5.22h2.08zm2.46 1.24l3.76 6h-2.48l-3.82-5.94 2.54-.06zm6.621 6V14.48h4.04c1.44 0 2.667.22 3.68.66s1.827 1.02 2.44 1.74c.627.72 1.08 1.52 1.36 2.4.293.88.44 1.767.44 2.66 0 1.08-.193 2.053-.58 2.92a6.89 6.89 0 0 1-1.58 2.24c-.667.613-1.433 1.087-2.3 1.42-.867.32-1.787.48-2.76.48h-4.74zm2.14-2.06h2.2c.787 0 1.507-.113 2.16-.34a4.79 4.79 0 0 0 1.72-1c.493-.44.873-.98 1.14-1.62s.4-1.373.4-2.2c0-.893-.153-1.667-.46-2.32-.293-.667-.687-1.213-1.18-1.64-.493-.44-1.047-.76-1.66-.96a5.46 5.46 0 0 0-1.84-.32h-2.48v10.4z"/><use href="#E"/><path d="M197.904 26.28c0 1.187-.233 2.2-.7 3.04-.453.853-1.08 1.5-1.88 1.94-.8.453-1.72.7-2.76.74v-2.08c.933-.053 1.7-.373 2.3-.96s.9-1.5.9-2.74V14.48h2.14v11.8zm2.328 2.72l6.38-15.1h.12l6.38 15.1h-2.44l-4.64-11.76 1.54-1.02-5.24 12.78h-2.1zm3.88-5.44h5.16l.74 1.84h-6.54l.64-1.84zm-.54-11.5a1.05 1.05 0 0 1 .34-.8c.227-.227.487-.34.78-.34.267 0 .52.113.76.34.24.213.36.48.36.8 0 .333-.12.607-.36.82s-.493.32-.76.32c-.28 0-.54-.107-.78-.32-.227-.213-.34-.487-.34-.82zm3.78 0c0-.32.12-.587.36-.8.24-.227.5-.34.78-.34.267 0 .513.113.74.34.24.213.36.48.36.8 0 .333-.12.607-.36.82-.227.213-.473.32-.74.32-.28 0-.54-.107-.78-.32s-.36-.487-.36-.82z"/><use href="#C" x="135.43"/><use href="#D" x="120.293"/><use href="#E" x="61.192"/></g><defs ><path id="B" d="M24.927 16.127a2.4 2.4 0 0 1-4.8 0 2.4 2.4 0 0 1 4.8 0z"/><path id="C" d="M92.946 29.5l-11.18-11.1.62.2.06 10.4h-2.16V14.02h.1l11.04 11.12-.5-.14-.04-10.52h2.12V29.5h-.06z"/><path id="D" d="M119.799 17.26a10.03 10.03 0 0 0-1.64-.68 5.59 5.59 0 0 0-1.7-.28c-.746 0-1.34.173-1.78.52-.44.333-.66.793-.66 1.38 0 .413.147.773.44 1.08s.674.573 1.14.8l1.48.64a10.15 10.15 0 0 1 1.3.58 4.83 4.83 0 0 1 1.18.8 3.25 3.25 0 0 1 .84 1.2c.214.467.32 1.04.32 1.72 0 .773-.193 1.473-.58 2.1-.373.627-.92 1.127-1.64 1.5-.706.36-1.566.54-2.58.54-.613 0-1.213-.067-1.8-.2a10.8 10.8 0 0 1-1.64-.56c-.506-.24-.966-.5-1.38-.78l.96-1.66a9.24 9.24 0 0 0 1.1.66 7.43 7.43 0 0 0 1.28.48c.454.12.88.18 1.28.18a3.97 3.97 0 0 0 1.3-.22c.427-.16.78-.4 1.06-.72.28-.333.42-.767.42-1.3 0-.453-.126-.833-.38-1.14-.24-.32-.566-.593-.98-.82-.4-.227-.833-.427-1.3-.6l-1.38-.58a7.4 7.4 0 0 1-1.3-.76 3.77 3.77 0 0 1-.98-1.12c-.24-.453-.36-1.007-.36-1.66 0-.773.18-1.447.54-2.02a3.87 3.87 0 0 1 1.54-1.38c.654-.333 1.407-.52 2.26-.56.974 0 1.82.12 2.54.36s1.36.527 1.92.86l-.82 1.64z"/><path id="E" d="M181.843 14.48h9.68v2.06h-3.82V29h-2.14V16.54h-3.72v-2.06z"/></defs></svg>